<svg xmlns="http://www.w3.org/2000/svg" xmlns:xlink="http://www.w3.org/1999/xlink" width="100" height="100" viewBox="0 0 42.999996 42.999996"><defs><linearGradient id="f"><stop offset="0" stop-color="#346604"/><stop offset="1" stop-color="#4e9a06"/></linearGradient><linearGradient id="e"><stop offset="0" stop-color="#fff"/><stop offset="1" stop-color="#fff" stop-opacity="0"/></linearGradient><linearGradient id="d"><stop offset="0" stop-color="#fff"/><stop offset="1" stop-color="#fff" stop-opacity="0"/></linearGradient><linearGradient id="c"><stop offset="0" stop-color="#fff"/><stop offset="1" stop-color="#fff" stop-opacity=".165"/></linearGradient><linearGradient id="b"><stop offset="0"/><stop offset="1" stop-opacity="0"/></linearGradient><linearGradient id="a"><stop offset="0" stop-color="#d3e9ff"/><stop offset=".155" stop-color="#d3e9ff"/><stop offset=".75" stop-color="#4074ae"/><stop offset="1" stop-color="#36486c"/></linearGradient><radialGradient xlink:href="#a" id="h" gradientTransform="matrix(1.08105 0 0 1.08105 -4.81 -2.89)" cx="18.248" cy="15.716" fx="18.248" fy="15.716" r="29.993" gradientUnits="userSpaceOnUse"/><radialGradient xlink:href="#c" id="X" gradientTransform="matrix(1.08105 0 0 1.08105 -4.81 -2.89)" cx="15.601" cy="12.142" fx="15.601" fy="12.142" r="43.527" gradientUnits="userSpaceOnUse"/><radialGradient xlink:href="#f" id="i" cx="37.179" cy="31.097" fx="37.179" fy="31.097" r="19.094" gradientTransform="matrix(.95296 -.02666 .02618 .93592 .663 2.18)" gradientUnits="userSpaceOnUse"/><linearGradient id="g"><stop offset="0"/><stop offset="1" stop-opacity="0"/></linearGradient><radialGradient xlink:href="#f" id="l" gradientUnits="userSpaceOnUse" gradientTransform="matrix(.95296 -.02666 .02618 .93592 .663 2.18)" cx="37.179" cy="31.097" fx="37.179" fy="31.097" r="19.094"/><radialGradient xlink:href="#f" id="k" gradientUnits="userSpaceOnUse" gradientTransform="matrix(.95296 -.02666 .02618 .93592 .663 2.18)" cx="37.179" cy="31.097" fx="37.179" fy="31.097" r="19.094"/><radialGradient xlink:href="#f" id="j" gradientUnits="userSpaceOnUse" gradientTransform="matrix(.95296 -.02666 .02618 .93592 .663 2.18)" cx="37.179" cy="31.097" fx="37.179" fy="31.097" r="19.094"/><radialGradient xlink:href="#f" id="o" gradientUnits="userSpaceOnUse" gradientTransform="matrix(.95296 -.02666 .02618 .93592 .663 2.18)" cx="37.179" cy="31.097" fx="37.179" fy="31.097" r="19.094"/><radialGradient xlink:href="#f" id="n" gradientUnits="userSpaceOnUse" gradientTransform="matrix(.95296 -.02666 .02618 .93592 .663 2.18)" cx="37.179" cy="31.097" fx="37.179" fy="31.097" r="19.094"/><radialGradient xlink:href="#f" id="m" gradientUnits="userSpaceOnUse" gradientTransform="matrix(.95296 -.02666 .02618 .93592 .663 2.18)" cx="37.179" cy="31.097" fx="37.179" fy="31.097" r="19.094"/><radialGradient xlink:href="#f" id="r" gradientUnits="userSpaceOnUse" gradientTransform="matrix(.95296 -.02666 .02618 .93592 .663 2.18)" cx="37.179" cy="31.097" fx="37.179" fy="31.097" r="19.094"/><radialGradient xlink:href="#f" id="q" gradientUnits="userSpaceOnUse" gradientTransform="matrix(.95296 -.02666 .02618 .93592 .663 2.18)" cx="37.179" cy="31.097" fx="37.179" fy="31.097" r="19.094"/><radialGradient xlink:href="#f" id="p" gradientUnits="userSpaceOnUse" gradientTransform="matrix(.95296 -.02666 .02618 .93592 .663 2.18)" cx="37.179" cy="31.097" fx="37.179" fy="31.097" r="19.094"/><radialGradient xlink:href="#f" id="u" gradientUnits="userSpaceOnUse" gradientTransform="matrix(.95296 -.02666 .02618 .93592 .663 2.18)" cx="37.179" cy="31.097" fx="37.179" fy="31.097" r="19.094"/><radialGradient xlink:href="#f" id="t" gradientUnits="userSpaceOnUse" gradientTransform="matrix(.95296 -.02666 .02618 .93592 .663 2.18)" cx="37.179" cy="31.097" fx="37.179" fy="31.097" r="19.094"/><radialGradient xlink:href="#f" id="s" gradientUnits="userSpaceOnUse" gradientTransform="matrix(.95296 -.02666 .02618 .93592 .663 2.18)" cx="37.179" cy="31.097" fx="37.179" fy="31.097" r="19.094"/><radialGradient xlink:href="#f" id="x" gradientUnits="userSpaceOnUse" gradientTransform="matrix(.95296 -.02666 .02618 .93592 .663 2.18)" cx="37.179" cy="31.097" fx="37.179" fy="31.097" r="19.094"/><radialGradient xlink:href="#f" id="w" gradientUnits="userSpaceOnUse" gradientTransform="matrix(.95296 -.02666 .02618 .93592 .663 2.18)" cx="37.179" cy="31.097" fx="37.179" fy="31.097" r="19.094"/><radialGradient xlink:href="#f" id="v" gradientUnits="userSpaceOnUse" gradientTransform="matrix(.95296 -.02666 .02618 .93592 .663 2.18)" cx="37.179" cy="31.097" fx="37.179" fy="31.097" r="19.094"/><radialGradient xlink:href="#f" id="A" gradientUnits="userSpaceOnUse" gradientTransform="matrix(.95296 -.02666 .02618 .93592 .663 2.18)" cx="37.179" cy="31.097" fx="37.179" fy="31.097" r="19.094"/><radialGradient xlink:href="#f" id="z" gradientUnits="userSpaceOnUse" gradientTransform="matrix(.95296 -.02666 .02618 .93592 .663 2.18)" cx="37.179" cy="31.097" fx="37.179" fy="31.097" r="19.094"/><radialGradient xlink:href="#f" id="y" gradientUnits="userSpaceOnUse" gradientTransform="matrix(.95296 -.02666 .02618 .93592 .663 2.18)" cx="37.179" cy="31.097" fx="37.179" fy="31.097" r="19.094"/><radialGradient xlink:href="#f" id="D" gradientUnits="userSpaceOnUse" gradientTransform="matrix(.95296 -.02666 .02618 .93592 .663 2.18)" cx="37.179" cy="31.097" fx="37.179" fy="31.097" r="19.094"/><radialGradient xlink:href="#f" id="C" gradientUnits="userSpaceOnUse" gradientTransform="matrix(.95296 -.02666 .02618 .93592 .663 2.18)" cx="37.179" cy="31.097" fx="37.179" fy="31.097" r="19.094"/><radialGradient xlink:href="#f" id="B" gradientUnits="userSpaceOnUse" gradientTransform="matrix(.95296 -.02666 .02618 .93592 .663 2.18)" cx="37.179" cy="31.097" fx="37.179" fy="31.097" r="19.094"/><radialGradient xlink:href="#f" id="G" gradientUnits="userSpaceOnUse" gradientTransform="matrix(.95296 -.02666 .02618 .93592 .663 2.18)" cx="37.179" cy="31.097" fx="37.179" fy="31.097" r="19.094"/><radialGradient xlink:href="#f" id="F" gradientUnits="userSpaceOnUse" gradientTransform="matrix(.95296 -.02666 .02618 .93592 .663 2.18)" cx="37.179" cy="31.097" fx="37.179" fy="31.097" r="19.094"/><radialGradient xlink:href="#f" id="E" gradientUnits="userSpaceOnUse" gradientTransform="matrix(.95296 -.02666 .02618 .93592 .663 2.18)" cx="37.179" cy="31.097" fx="37.179" fy="31.097" r="19.094"/><radialGradient xlink:href="#f" id="J" gradientUnits="userSpaceOnUse" gradientTransform="matrix(.95296 -.02666 .02618 .93592 .663 2.18)" cx="37.179" cy="31.097" fx="37.179" fy="31.097" r="19.094"/><radialGradient xlink:href="#f" id="I" gradientUnits="userSpaceOnUse" gradientTransform="matrix(.95296 -.02666 .02618 .93592 .663 2.18)" cx="37.179" cy="31.097" fx="37.179" fy="31.097" r="19.094"/><radialGradient xlink:href="#f" id="L" gradientUnits="userSpaceOnUse" gradientTransform="matrix(.95296 -.02666 .02618 .93592 .663 2.18)" cx="37.179" cy="31.097" fx="37.179" fy="31.097" r="19.094"/><radialGradient xlink:href="#f" id="K" gradientUnits="userSpaceOnUse" gradientTransform="matrix(.95296 -.02666 .02618 .93592 .663 2.18)" cx="37.179" cy="31.097" fx="37.179" fy="31.097" r="19.094"/><radialGradient xlink:href="#f" id="H" gradientUnits="userSpaceOnUse" gradientTransform="matrix(.95296 -.02666 .02618 .93592 .663 2.18)" cx="37.179" cy="31.097" fx="37.179" fy="31.097" r="19.094"/><radialGradient xlink:href="#f" id="O" gradientUnits="userSpaceOnUse" gradientTransform="matrix(.95296 -.02666 .02618 .93592 .663 2.18)" cx="37.179" cy="31.097" fx="37.179" fy="31.097" r="19.094"/><radialGradient xlink:href="#f" id="N" gradientUnits="userSpaceOnUse" gradientTransform="matrix(.95296 -.02666 .02618 .93592 .663 2.18)" cx="37.179" cy="31.097" fx="37.179" fy="31.097" r="19.094"/><radialGradient xlink:href="#f" id="Q" gradientUnits="userSpaceOnUse" gradientTransform="matrix(.95296 -.02666 .02618 .93592 .663 2.18)" cx="37.179" cy="31.097" fx="37.179" fy="31.097" r="19.094"/><radialGradient xlink:href="#f" id="P" gradientUnits="userSpaceOnUse" gradientTransform="matrix(.95296 -.02666 .02618 .93592 .663 2.18)" cx="37.179" cy="31.097" fx="37.179" fy="31.097" r="19.094"/><radialGradient xlink:href="#f" id="M" gradientUnits="userSpaceOnUse" gradientTransform="matrix(.95296 -.02666 .02618 .93592 .663 2.18)" cx="37.179" cy="31.097" fx="37.179" fy="31.097" r="19.094"/><radialGradient xlink:href="#f" id="T" gradientUnits="userSpaceOnUse" gradientTransform="matrix(.95296 -.02666 .02618 .93592 .663 2.18)" cx="37.179" cy="31.097" fx="37.179" fy="31.097" r="19.094"/><radialGradient xlink:href="#f" id="S" gradientUnits="userSpaceOnUse" gradientTransform="matrix(.95296 -.02666 .02618 .93592 .663 2.18)" cx="37.179" cy="31.097" fx="37.179" fy="31.097" r="19.094"/><radialGradient xlink:href="#f" id="R" gradientUnits="userSpaceOnUse" gradientTransform="matrix(.95296 -.02666 .02618 .93592 .663 2.18)" cx="37.179" cy="31.097" fx="37.179" fy="31.097" r="19.094"/><radialGradient xlink:href="#f" id="W" gradientUnits="userSpaceOnUse" gradientTransform="matrix(.95296 -.02666 .02618 .93592 .663 2.18)" cx="37.179" cy="31.097" fx="37.179" fy="31.097" r="19.094"/><radialGradient xlink:href="#f" id="V" gradientUnits="userSpaceOnUse" gradientTransform="matrix(.95296 -.02666 .02618 .93592 .663 2.18)" cx="37.179" cy="31.097" fx="37.179" fy="31.097" r="19.094"/><radialGradient xlink:href="#f" id="U" gradientUnits="userSpaceOnUse" gradientTransform="matrix(.95296 -.02666 .02618 .93592 .663 2.18)" cx="37.179" cy="31.097" fx="37.179" fy="31.097" r="19.094"/></defs><path d="M42.712 22.5c0 11.577-9.385 20.962-20.962 20.962S.788 34.077.788 22.5c0-11.578 9.385-20.962 20.962-20.962s20.962 9.384 20.962 20.96z" fill="url(#h)" stroke="#39396c" stroke-width="1.075" transform="translate(-.25 -1)"/><g transform="matrix(1.062 0 0 1.06198 -4.93 -3.638)" fill="url(#i)"><path d="M43.88 20.648l-.354.684c-.334-.394-.71-.725-1.09-1.07l-.835.122-.763-.863v1.07l.654.495.437.493.582-.658.435.823v.822l-.655.74-1.2.823-.907.907-.582-.66.292-.74-.58-.66-.983-2.097-.837-.945-.22.246.33 1.193.617.7c.352 1.016.7 1.99 1.164 2.962.718 0 1.394-.076 2.107-.166v.575l-.87 2.14-.8.903-.655 1.4v2.304l.22.906-.365.41-.8.494-.836.7.69.78-.944.825.18.533-1.417 1.606h-.944l-.8.494h-.51v-.66l-.217-1.317a129.53 129.53 0 0 0-.872-2.467c0-.605.037-1.205.073-1.81l.364-.823-.51-.988.038-1.357-.692-.782.346-1.13-.564-.64h-.982l-.327-.37-.982.62-.4-.455-.908.783c-.617-.7-1.236-1.4-1.854-2.098l-.726-1.73.654-.985-.362-.41.8-1.895c.655-.816 1.34-1.6 2.034-2.385l1.236-.33 1.38-.163.946.247 1.345 1.356.472-.534.653-.082 1.236.41h.947l.654-.575.292-.412-.655-.41-1.09-.083c-.304-.42-.585-.862-.945-1.235l-.364.164-.145 1.07-.655-.74-.144-.824-.727-.574h-.292l.728.822-.29.74-.582.165.364-.74-.655-.33-.58-.657-1.093.246-.145.328-.654.412-.363.906-.91.452-.4-.452h-.434v-1.482l.946-.494h.726l-.146-.575-.58-.576.98-.205.545-.617.437-.74h.8l-.218-.576.51-.33v.66l1.088.245 1.09-.904.073-.412.946-.657c-.342.043-.684.074-1.018.165v-.74l.363-.824h-.362l-.798.74-.22.412.22.576-.365.987-.58-.33-.51-.576-.8.576-.29-1.316 1.38-.905v-.495l.873-.576 1.38-.33.947.33 1.744.328-.437.493h-.945l.945.99.727-.824.157-.282c3.13 2.87 5.88 6.665 6.593 11.694z" fill="url(#l)"/><path d="M26.07 9.236l-.073.493.51.33.87-.577-.435-.494-.582.33-.29-.084" fill="url(#o)"/><path d="M26.87 5.863l-1.89-.74-2.18.246-2.69.74-.51.493 1.672 1.152v.658l-.654.658.873 1.73.58-.33.73-1.15c1.123-.348 2.13-.742 3.197-1.236l.873-2.22" fill="url(#r)"/><path d="M28.833 12.775l-.29-.74-.51.164.146.903.653-.328" fill="url(#u)"/><path d="M29.123 12.61l-.145.987.8-.165.58-.575-.508-.494a14.74 14.74 0 0 0-.582-1.316h-.435v.493l.29.33v.74" fill="url(#x)"/><path d="M18.365 28.242l-.582-1.152-1.09-.247-.582-1.562-1.452.165-1.236-.904-1.31 1.152v.182c-.395-.115-.88-.13-1.234-.347l-.29-.822V23.8l-.873.08.218-1.726h-.51l-.507.658-.51.246-.727-.41-.074-.905.146-.988 1.09-.822h.873l.145-.494 1.09.245.8.988.145-1.646 1.382-1.152.508-1.234 1.018-.41.582-.822 1.308-.248.654-.987h-1.962l1.235-.576h.872l1.236-.412.146-.492-.437-.412-.51-.164.147-.493-.363-.74-.872.327.146-.657-1.018-.577-.8 1.398.073.494-.8.33-.51 1.07-.217-.987-1.382-.576-.217-.74 1.817-1.07.8-.74.073-.905L14.367 8l-.582-.083-.363.905s-.703.055-.86.094c-2.575 2.14-6.06 6.063-6.87 13.368.037.174.68 1.182.68 1.182l1.525.904 1.527.412.654.824 1.018.74.58-.082.437.196v.133l-.58 1.563-.438.658.146.33-.362 1.233 1.308 2.387 1.308 1.153.582.822-.073 1.728.437.987-.437 1.892s-.034-.012.022.177c.056.19 2.33 1.45 2.473 1.344l.267-.204-.145-.41.58-.577.22-.577.945-.33.727-1.81-.218-.493.508-.74 1.09-.248.582-1.316-.145-1.645.87-1.233.147-1.235c-1.194-.59-2.378-1.2-3.562-1.81" fill="url(#A)"/><path d="M16.766 9.565l.726.494h.582v-.577l-.726-.33-.582.412" fill="url(#D)"/><path d="M14.876 8.907l-.364.905h.727l.363-.823c.314-.223.626-.446.945-.66l.727.248c.484.33.97.658 1.454.987l.726-.658-.8-.33-.364-.74-1.38-.164-.074-.412-.654.166-.29.576-.364-.74-.145.328.073.823-.582.494" fill="url(#G)"/><path d="M17.492 6.85l.364-.33.727-.164c.498-.242.998-.405 1.527-.576l-.29-.494-.94.135-.442.443-.73.106-.65.304-.317.153-.192.26.944.163" fill="url(#T)"/><path d="M18.729 14.666l.435-.658-.655-.493.218 1.15" fill="url(#W)"/></g><path d="M41.648 22.5c0 10.99-8.91 19.898-19.898 19.898-10.99 0-19.898-8.91-19.898-19.9 0-10.988 8.91-19.896 19.898-19.896 10.99 0 19.898 8.908 19.898 19.897z" opacity=".396" fill="none" stroke="url(#X)" stroke-width="1.075" transform="translate(-.25 -1)"/></svg>