<svg xmlns="http://www.w3.org/2000/svg" xmlns:xlink="http://www.w3.org/1999/xlink" width="40.007" height="40.01"><defs><linearGradient id="j"><stop offset="0" stop-color="#61330d" stop-opacity="0"/><stop offset="1" stop-color="#7b4111" stop-opacity=".602"/></linearGradient><linearGradient id="i"><stop offset="0" stop-color="#d3bda1"/><stop offset="1" stop-color="#d3bda1" stop-opacity="0"/></linearGradient><linearGradient id="h"><stop offset="0"/><stop offset="1" stop-opacity="0"/></linearGradient><linearGradient id="c"><stop offset="0" stop-color="#fff"/><stop offset="1" stop-color="#fff" stop-opacity="0"/></linearGradient><linearGradient id="a"><stop offset="0" stop-color="#fff"/><stop offset="1" stop-color="#fff" stop-opacity="0"/></linearGradient><linearGradient id="g"><stop offset="0" stop-color="#edd400"/><stop offset="1" stop-color="#edd400" stop-opacity="0"/></linearGradient><linearGradient id="b"><stop offset="0" stop-color="#fcaf3e"/><stop offset="1" stop-color="#fcaf3e" stop-opacity="0"/></linearGradient><linearGradient id="f"><stop offset="0" stop-color="#fce94f"/><stop offset="1" stop-color="#fce94f" stop-opacity="0"/></linearGradient><linearGradient id="e"><stop offset="0" stop-color="#eeeeec"/><stop offset="1" stop-color="#eeeeec" stop-opacity="0"/></linearGradient><linearGradient id="d"><stop offset="0" stop-color="#fff"/><stop offset="1" stop-color="#fff" stop-opacity="0"/></linearGradient><linearGradient xlink:href="#i" id="p" x1="330.818" y1="-441.646" x2="333.638" y2="-444.328" gradientUnits="userSpaceOnUse"/><linearGradient xlink:href="#i" id="q" gradientUnits="userSpaceOnUse" x1="327.412" y1="-440.286" x2="325.313" y2="-445.021"/><radialGradient xlink:href="#j" id="r" cx="-27.422" cy="-16.483" fx="-27.422" fy="-16.483" r="9.781" gradientUnits="userSpaceOnUse" gradientTransform="matrix(-1.43206 -.44666 .29775 -.95464 -61.784 -44.466)"/><linearGradient id="m"><stop offset="0" stop-color="#fff"/><stop offset="1" stop-color="#fff" stop-opacity="0"/></linearGradient><linearGradient id="l"><stop offset="0" stop-color="#fff"/><stop offset="1" stop-color="#fff" stop-opacity="0"/></linearGradient><linearGradient id="k"><stop offset="0" stop-color="#346604"/><stop offset="1" stop-color="#4e9a06"/></linearGradient><linearGradient id="n"><stop offset="0"/><stop offset="1" stop-opacity="0"/></linearGradient><linearGradient id="o"><stop offset="0"/><stop offset="1" stop-opacity="0"/></linearGradient></defs><g transform="translate(-3.994 -3.992)"><circle transform="matrix(2 0 0 2 136.5 23.5)" cx="-56.25" cy=".25" r="9.75" fill="#aa592d"/><path d="M7.416 31.92l33.57-.283-3.303 4.81h-27.06z" fill="#af804e"/><path d="M15.063 7.952l7.67-2.2 3.6.066 7.07 2.334.068.467-19.074.2.667-.868z" fill="#b69564"/><g transform="matrix(1.35177 0 0 1.35177 -421.942 625.694)"><path d="M316.23-447.472c1.11-1.765 5.396-1.984 6.812-1.138 1.194.713 2.952.372 5.084-.2 1.336-.357 2.424 1.634 6.37.354 1.918-.622 3.516-.647 5.755-.357 1.047.136 2.33.204 2.847.67.616.554.37 1.556.426 2.3.262 3.4-3.438 4.297-6.275 2.942-2.427-1.16-4.85 1.894-7.847 1.124-3.272-.84-7.196-1.193-8.383-.38-1.248.856-3.94.766-4.48-.555-.5-1.23-.455-3.066-.306-4.762z" fill="#b76c3c"/><path d="M317.498-438.456H342.1l.74-2.22h-25.892z" fill="#d3bda1"/><path d="M332.087-439.54c1.033 1.943 5.563 5.06 9.567.01-1.308-.457-9.73-.107-9.567-.01z" fill="#d3bda1"/><path d="M332.087-439.97c1.033-1.944 5.563-5.06 9.567-.01-1.308.456-9.73.106-9.567.01z" fill="#d3bda1"/><path d="M322.69-446.022c-.01-.01.025 0 0 0z" fill="none" stroke="#000" stroke-width=".74"/><path d="M320.647-455.1h18.494" stroke="#a09b8c" stroke-width=".74" fill="none"/><path d="M319.907-454.36h19.974" fill="#cfa565" stroke="#cfa565" stroke-width=".74"/><ellipse transform="matrix(.83566 0 0 .97486 310.447 -470.33)" cx="31.625" cy="31.375" rx="3.375" ry="1.625" fill="#fbad3e" stroke="#ca6919" stroke-width=".82" stroke-linecap="round"/><ellipse transform="matrix(.3562 0 0 .41337 325.61 -452.713)" cx="31.625" cy="31.375" rx="3.375" ry="1.625" fill="#f57900"/><path d="M331.388-440.286c-.14-1.67.57-2.295 2.25-2.194-1.815-.968-4.01.61-4.35 1.992" fill="url(#p)"/><path d="M320.277-435.127h18.864" stroke="#7d6f62" stroke-width=".74" fill="none"/><path d="M319.907-435.867h19.974" fill="#d3bda1" stroke="#d3bda1" stroke-width=".74"/><path d="M316.208-444.744h27.37" stroke="#b5b6b3" stroke-width=".74" fill="none"/><path d="M316.58-447.333l-.37 2.22h27.37l-.37-2.22z" style="line-height:normal;-inkscape-font-specification:'Bitstream Vera Sans';text-indent:0;text-align:start;text-decoration-line:none;text-transform:none;block-progression:tb" color="#000" font-weight="400" font-family="Bitstream Vera Sans" overflow="visible" fill="#e8cb9e"/><path d="M318.797-452.88h22.193" fill="#cfa565" stroke="#dcb999" stroke-width=".74"/><path d="M318.427-452.142h23.303" fill="#eeeeec" stroke="#babdb6" stroke-width=".74"/><path d="M317.677-451.776l-.74 1.47h25.918l-.74-1.47z" style="line-height:normal;-inkscape-font-specification:'Bitstream Vera Sans';text-indent:0;text-align:start;text-decoration-line:none;text-transform:none;block-progression:tb" color="#000" font-weight="400" font-family="Bitstream Vera Sans" overflow="visible" fill="#d6aa67"/><path d="M317.318-449.922h25.522" fill="#eeeeec" stroke="#babdb6" stroke-width=".74"/><path d="M327.412-440.286c-.14-1.67.57-2.295 2.25-2.194-1.815-.968-4.012.61-4.35 1.992" fill="url(#q)"/><path d="M323.236-433.278h13.316" fill="#956232" stroke="#956232" stroke-width=".74"/><path d="M324.346-432.168h11.096" fill="#ae8c6a" stroke="#ae8c6a" stroke-width="1.48"/></g><path d="M43.5 24c.106 7.668-4.822 15.063-11.91 17.968-7.035 3.067-15.79 1.424-21.212-4.015-5.505-5.235-7.385-13.815-4.61-20.88 2.664-7.26 9.99-12.476 17.73-12.567 7.672-.304 15.2 4.444 18.28 11.47A19.447 19.447 0 0 1 43.5 24z" fill="none" stroke="#61330d"/></g><circle transform="matrix(-1.80037 -.7406 .7406 -1.80037 -24.64 -35.2)" cx="-32" cy="-17.5" r="9.5" fill="url(#r)" stroke="#d3d7cf" stroke-width=".514" stroke-linecap="square"/></svg>