<svg xmlns="http://www.w3.org/2000/svg" xmlns:xlink="http://www.w3.org/1999/xlink" width="40" height="40"><defs><linearGradient id="e"><stop offset="0" stop-color="#204a87"/><stop offset="1" stop-color="#204a87" stop-opacity="0"/></linearGradient><linearGradient id="d"><stop offset="0" stop-color="#204a87" stop-opacity="0"/><stop offset=".494" stop-color="#417cd2" stop-opacity=".722"/><stop offset="1" stop-color="#204a87" stop-opacity="0"/></linearGradient><linearGradient id="c"><stop offset="0" stop-color="#204a87" stop-opacity="0"/><stop offset=".494" stop-color="#204a87"/><stop offset="1" stop-color="#204a87" stop-opacity="0"/></linearGradient><linearGradient id="b"><stop offset="0" stop-color="#dedede" stop-opacity="0"/><stop offset="1" stop-color="#7797e3" stop-opacity=".713"/></linearGradient><linearGradient id="a"><stop offset="0"/><stop offset="1" stop-opacity="0"/></linearGradient><radialGradient xlink:href="#b" id="i" gradientUnits="userSpaceOnUse" gradientTransform="matrix(-1.43206 -.44666 .29775 -.95464 -61.784 -44.466)" cx="-27.422" cy="-16.483" fx="-27.422" fy="-16.483" r="9.781"/><linearGradient xlink:href="#c" id="f" x1="24.25" y1="35.938" x2="24.25" y2="29.5" gradientUnits="userSpaceOnUse"/><linearGradient xlink:href="#d" id="h" gradientUnits="userSpaceOnUse" x1="24.25" y1="35.938" x2="24.25" y2="29.124" gradientTransform="matrix(1 0 0 -1 0 47.258)"/><radialGradient xlink:href="#e" id="g" cx="15.688" cy="24.385" fx="15.688" fy="24.385" r="5.928" gradientTransform="matrix(0 -.66474 1.1652 0 -12.726 34.616)" gradientUnits="userSpaceOnUse"/></defs><circle transform="matrix(2 0 0 2 132.5 19.5)" cx="-56.25" cy=".25" r="9.75" stroke="#204a87" stroke-width=".5" fill="#729fcf"/><path d="M10 36h28l4.125-8.125L6.437 29.25z" fill="url(#f)" transform="translate(-4 -4)"/><path d="M15.656 20.97c-.582.063-1.044.536-1.642.53-.552-.26-1.072.266-1.63.19-1.11.193-2.238.56-3.087 1.33-.61.77-.21 2.102.747 2.368.616.412 1.276.865 2.05.852.843.138 1.658.415 2.444.744.905.1 1.73-.377 2.597-.545 1.02-.36 2.052-.715 3.023-1.19.73-.555.98-1.764.322-2.468-.496-.334-1.228-.205-1.61-.732-.906-.76-2.193-.582-3.214-1.08zm-4.47 5.155c-.13-.083.085.13.002 0z" fill="url(#g)" transform="translate(-4 -4)"/><path d="M15.617 21.277c-.326.154-.752.134-1.134.174-.33-.116-.757-.155-1.103-.04-.4-.08-.917-.053-1.18.178-.263.133-.704.046-.894.247-.133.185-.28.486.093.6.28.138.51.34.88.387.294.102.673.18.987.065.576-.072 1.13.104 1.7.118.337.056.716.126 1.033-.005.344-.098.726-.15 1.103-.117.31-.042.523-.288.874-.177.385.017.54-.212.727-.368.185-.152.204-.413-.085-.52-.485-.237-1.067-.46-1.705-.404-.357.015-.743.02-1.06-.104a1.006 1.006 0 0 0-.238-.033zm3.162 1.088c-.12-.115-.02.12 0 0zm-4.96.626c-.154.08.113.048 0 0zm-1.552-.054c-.25.118.19.04 0 0zm5.457-.3c.198-.06-.016.127 0 0zM14.75 16.625c-.807.116-1.663.098-2.406.47-.093-.134-.263.125-.063.093.213-.06.102.31.314.25.432.344 1.046.282 1.562.406a4.958 4.958 0 0 1 3.004-.035c.904.13 1.786.542 2.71.45.173-.01.39-.072.38-.29-.254-.19-.636-.07-.844-.314-.138.05-.336.435-.468.156-.986-.18-1.814-.772-2.688-1.218-.49-.134-1.008-.05-1.5.03zm-1.22 1.438c.077.217.077-.218 0 0zM24.97 19.375c-.877.008-1.772.138-2.564.53-.148.106-.436.128-.343.376.13.184.327-.127.478-.14.826-.425 1.79-.412 2.696-.37 1.065.027 2.133.136 3.17.386l.563.188c-.408-.676-1.314-.427-1.876-.844-.706-.077-1.414-.207-2.125-.125z" fill="#eeeeec"/><path d="M30.03 28.188c-1.006.107-2.02.15-3.03.218-.143.2-.4.298-.506.527.065.24.404.245.46.49.135.248.427.07.58-.05.184-.02.365.047.548.063.315.057.632.125.955.098.255-.01.505-.072.748-.145.304-.04.625.166.913-.003a.97.97 0 0 1 .643-.086c.215-.14.153-.492-.067-.593-.35-.223-.74-.382-1.065-.645-.085-.02-.14.065-.177.126z" fill="#0e203b"/><path d="M10 11.258h28l4.125 8.125-35.688-1.375z" fill="url(#h)" transform="translate(-4 -4)"/><path d="M10.928 12.1c-.326.155-.752.136-1.134.176-.33-.118-.757-.157-1.102-.042-.4-.08-.918-.052-1.18.178-.264.133-.704.047-.895.248-.132.185-.28.486.094.6.282.137.512.34.882.386.294.103.673.18.986.065.576-.07 1.13.105 1.7.12.337.055.716.125 1.033-.006.346-.098.728-.148 1.104-.116.31-.042.523-.29.874-.177.386.018.54-.21.728-.367.185-.153.204-.414-.086-.522-.483-.235-1.066-.458-1.704-.4-.356.013-.743.018-1.058-.105a1.006 1.006 0 0 0-.24-.034zm3.163 1.09c-.117-.116-.02.12 0 0zm-4.96.625c-.152.08.114.047 0 0zm-1.55-.054c-.25.118.19.04 0 0zm5.457-.3c.197-.06-.017.127 0 0z" opacity=".5" fill="#eeeeec"/><g transform="translate(-4 -4)"><circle transform="matrix(-1.21578 -1.52105 1.52105 -1.21578 11.713 -45.95)" cx="-32" cy="-17.5" r="9.5" fill="url(#i)" stroke="#a0bedf" stroke-width=".514" stroke-linecap="square"/></g></svg>