<svg xmlns="http://www.w3.org/2000/svg" xmlns:xlink="http://www.w3.org/1999/xlink" width="40" height="40"><defs><linearGradient id="b"><stop offset="0" stop-color="#555753" stop-opacity=".788"/><stop offset="1" stop-color="#555753" stop-opacity="0"/></linearGradient><linearGradient id="a"><stop offset="0" stop-color="#f87000" stop-opacity="0"/><stop offset="1" stop-color="#564000" stop-opacity=".46"/></linearGradient><linearGradient id="c"><stop offset="0"/><stop offset="1" stop-opacity="0"/></linearGradient><radialGradient xlink:href="#a" id="d" gradientUnits="userSpaceOnUse" gradientTransform="matrix(-1.43206 -.44666 .29775 -.95464 -61.784 -44.466)" cx="-27.422" cy="-16.483" fx="-27.422" fy="-16.483" r="9.781"/></defs><g transform="translate(-5.288 -2.748)"><path d="M44.695 22.594c.107 7.668-4.822 15.063-11.91 17.967-6.962 3.034-15.612 1.465-21.044-3.85C6.238 31.594 4.23 23.17 6.8 16.113 9.282 8.8 16.466 3.41 24.192 3.12c7.51-.486 15.017 3.867 18.37 10.596a19.438 19.438 0 0 1 2.133 8.878z" fill="#ff8600"/><path d="M15.208 13.768c.89-.027 1.675-.81 2.59-.512.62.42 1.16 1.08 1.968 1.098.822.084 1.564-.6 1.683-1.392.31-1.25-.22-2.535.09-3.784.562-.504 1.44-.28 2.006-.778.262-.697-.723-.807-1.2-.75-.72.013-1.515.216-2.17-.18-.136-.398-.038-1.134-.74-.946-.655.205-1.37.455-1.912.833-.313.653.59.468.958.534.572.06 1.268.163 1.594.692.204.667-.465 1.26-.242 1.945.085.652.356 1.298.233 1.964-.73.49-1.607.094-2.374-.065-.896-.226-1.883-.476-2.76-.045a6.177 6.177 0 0 0-2.42 1.956 3.81 3.81 0 0 0-.632 1.455c.188.606.99.604 1.43.29.497-.296.73-.832.96-1.335.17-.463.67-.6.938-.977z" fill="#f5cc6e"/><path d="M20.113 34.36c.098-.485-1.262-2.913-.68-3.4.583-.485 3.11-1.942 3.79-1.942.68 0 2.816-.388 2.816-.388s4.08-3.79 4.564-3.79c.486 0 1.554-1.456 3.497-.873 1.944.583 3.79 3.01 3.887 4.857.097 1.845-.39 7.576-1.07 7.965-.68.388-5.244 3.982-8.644 4.08-3.4.096-8.062-6.315-8.16-6.51z" fill="#b56112"/><circle transform="matrix(2 0 0 2 137.788 22.248)" cx="-56.25" cy=".25" r="9.75" fill="none" stroke="#3c2002" stroke-width=".5"/><path d="M33.596 20.758c.366-.656.037-1.668.818-2.073.785-.336 1.63-.525 2.435-.808.936-.3 1.848.188 2.768.32 1.233.276 2.512.504 3.64 1.098.397.482.15 1.182.278 1.755.06 1 .107 2.003.156 3.005.475.5.554 1.523-.304 1.662-1.253.31-2.558.07-3.83.013-.653.006-1.298-.055-1.874-.393-.97-.48-1.905-1.027-2.83-1.58-.29-.374-.388-.87-.587-1.3-.224-.566-.448-1.133-.67-1.7zM8.158 30.225c.366-.655.037-1.668.818-2.073.785-.335 1.63-.525 2.435-.808.938-.298 1.85.188 2.77.32 1.233.277 2.512.505 3.64 1.1.397.48.15 1.18.278 1.753.06 1.002.107 2.004.156 3.005.475.5.554 1.524-.304 1.663-1.253.31-2.558.07-3.83.012-.653.006-1.298-.055-1.874-.393-.97-.48-1.905-1.026-2.83-1.58-.29-.374-.388-.868-.587-1.3-.225-.566-.45-1.132-.672-1.7z" fill="#edb951"/><path d="M23.293 27.352c.343-1.1 3.846-6.113 4.396-5.426.548.687 1.098 1.51 1.166 1.786.07.274-.618 3.022-.96 3.228-.345.206-4.466.55-4.603.412z" fill="#b56112"/><path d="M13.54 14.748c-.104 1.923.995 4.877 2.953 4.327 1.957-.55 3.503-.893 3.846-1.683.343-.79 1.133-.72.583-1.648-.55-.927-.962-2.335-1.58-2.54-.618-.207-4.74-1.96-5.804 1.544z" fill="#be7c18" fill-opacity=".979"/><path d="M29.68 11.314c-1.798.022-3.6.178-5.39.31 1.964.828 4.127.45 6.18.65 1.794.318 2.048 2.402 2.3 3.882.236 1.855.578 3.98-.514 5.632-.86.658-1.955.952-2.953 1.408-1.005-1.32-3.73-3.857-4.637-4.705.982 1.06 2.75 3.163 3.503 5.187-1.41.625-.444 2.564-1.41 3.538-1.338.085-2.432-1.03-3.502-1.718-1.965-1.333-2.727-3.767-4.5-5.288-1.042 1.18.795 2.9 1.58 3.948.833 1.11 2.478 3.142.928 4.293-2.122.84-4.353-.187-6.216-1.2-1.657-1.127-1.987-3.468-3.64-4.57-1.398-.355-3.568-1.718-4.155.345-.792 1.35-.305 3.122-.035 4.567.657 1.283.743 2.98 1.923 3.847.77-.957 2.283-3 3.778-1.856 1.22.648 1.946 1.973 3.4 2.233 1.76.096 1.282 2.725 2.577 3.296.818.278 3.237 1.52 2.507-.377-1.04-1.186-1.506-4.837.652-3.812.93.114 5.557 4.762 6.148 3.606.946-1.03-3.152-3.532-1.992-4.328 1.24-.67 3.676-3.37 4.5-4.36l2.334-1.58c1.843-.364 3.178 1.01 4.602 1.922.936 1.105 2.216.078 3.4.206.654-.053 1.426.207 1.923-.343 1.023-.385.03-1.396-.754-1.1-1.462-.085-3.04.29-4.327-.617-1.317-.713-2.453-1.36-3.264-2.542-1.202-1.857 1.757-3.643 2.92-3.297 1.438.268 3.63 1.795 4.532.173-.03-1.445-3.03-.833-4.12-1.477-1.54-.424-2.81-1.06-3.71-2.54-1.17-.92-.987-3.107-2.782-3.298a26.07 26.07 0 0 0-1.785-.034z" fill="#ffe821"/><path d="M15.687 14c.51-.48 1.782-.316 2.083.302.762 1.568-.093 3.353-1.842 2.565-1.312-.593-1.213-1.95-.24-2.867zM25.985 8.312c.19.934-1.16 1.034-1.872 1.132-.9.124-1.934-1.126-.846-1.605.79-.35 1.765-.224 2.43.335.082.07.268.04.288.137zM33.164 14.838c-.96.897-2.468-.3-3.284-.864-1.093-.755-.58-2.643 1.108-2.007 1.23.465 2.062 1.46 2.053 2.5 0 .13.215.285.124.37z" fill="#5b3e13"/><path d="M29.628 20.28c0 .464-.76.84-1.19.84-.428 0-.845-.72-.845-1.184 0-.465.348-.842.777-.842.43 0 1.258.72 1.258 1.185z" fill="#fdd878"/><path d="M30.216 6.434c1.602.34 2.428.34 3.108 1.31.68.973-.68.195-1.748-.34-1.07-.533-1.992-1.213-1.36-.97z" fill="#422a0a"/><path d="M20.614 16.396c1.58-.652 3.194-.824 3.572-.103.377.722 1.957 2.68 2.37 1.89.41-.79-1.924-4.122-2.302-4.053-.377.07-5.048 2.232-3.64 2.266z" fill="#96460b"/><path d="M7.146 27.22c.63-1.7.437-2.524 1.262-2.524.826 0 1.895.825 1.895 1.165 0 .34-.438 1.604-.826 1.895-.39.292-1.41.632-1.603.68-.194.05-.63-1.117-.728-1.214z" fill="#a17027"/><path d="M23.224 29c.618-.48 1.51-1.51 1.648-.618.138.893.275 1.443-.206 1.786-.48.343-1.305.206-1.373-.07-.07-.273 0-.96-.07-1.098z" fill="#875d16"/><circle transform="matrix(-1.21578 -1.52105 1.52105 -1.21578 13.002 -47.202)" cx="-32" cy="-17.5" r="9.5" fill="url(#d)" stroke="#d3d7cf" stroke-width=".514" stroke-linecap="square"/></g></svg>