<?xml version="1.0" encoding="UTF-8" standalone="no"?>
<!-- Created with Inkscape (http://www.inkscape.org/) -->

<svg
   xmlns:dc="http://purl.org/dc/elements/1.1/"
   xmlns:cc="http://creativecommons.org/ns#"
   xmlns:rdf="http://www.w3.org/1999/02/22-rdf-syntax-ns#"
   xmlns:svg="http://www.w3.org/2000/svg"
   xmlns="http://www.w3.org/2000/svg"
   xmlns:xlink="http://www.w3.org/1999/xlink"
   xmlns:sodipodi="http://sodipodi.sourceforge.net/DTD/sodipodi-0.dtd"
   xmlns:inkscape="http://www.inkscape.org/namespaces/inkscape"
   width="40"
   height="40"
   id="svg1306"
   sodipodi:version="0.32"
   inkscape:version="0.91 r13725"
   sodipodi:docname="neptune.svg"
   version="1.1">
  <defs
     id="defs1308">
    <linearGradient
       inkscape:collect="always"
       id="linearGradient8325">
      <stop
         style="stop-color:#204a87;stop-opacity:1;"
         offset="0"
         id="stop8327" />
      <stop
         style="stop-color:#204a87;stop-opacity:0;"
         offset="1"
         id="stop8329" />
    </linearGradient>
    <linearGradient
       id="linearGradient8291">
      <stop
         id="stop8293"
         offset="0"
         style="stop-color:#204a87;stop-opacity:0;" />
      <stop
         style="stop-color:#417cd2;stop-opacity:0.72173911;"
         offset="0.49416563"
         id="stop8295" />
      <stop
         id="stop8297"
         offset="1"
         style="stop-color:#204a87;stop-opacity:0;" />
    </linearGradient>
    <linearGradient
       id="linearGradient8277">
      <stop
         style="stop-color:#204a87;stop-opacity:0;"
         offset="0"
         id="stop8279" />
      <stop
         id="stop8285"
         offset="0.49416563"
         style="stop-color:#204a87;stop-opacity:1;" />
      <stop
         style="stop-color:#204a87;stop-opacity:0;"
         offset="1"
         id="stop8281" />
    </linearGradient>
    <linearGradient
       id="linearGradient4357">
      <stop
         style="stop-color:#555753;stop-opacity:0.78761059;"
         offset="0"
         id="stop4359" />
      <stop
         style="stop-color:#555753;stop-opacity:0;"
         offset="1"
         id="stop4361" />
    </linearGradient>
    <linearGradient
       id="linearGradient4215">
      <stop
         style="stop-color:#dedede;stop-opacity:0;"
         offset="0"
         id="stop4217" />
      <stop
         style="stop-color:#7797e3;stop-opacity:0.71304345;"
         offset="1"
         id="stop4219" />
    </linearGradient>
    <radialGradient
       inkscape:collect="always"
       xlink:href="#linearGradient4126"
       id="radialGradient3976"
       gradientUnits="userSpaceOnUse"
       gradientTransform="matrix(1,0,0,0.5,0,20)"
       cx="23.857143"
       cy="40"
       fx="23.857143"
       fy="40"
       r="17.142857" />
    <linearGradient
       id="linearGradient4126"
       inkscape:collect="always">
      <stop
         id="stop4128"
         offset="0"
         style="stop-color:#000000;stop-opacity:1;" />
      <stop
         id="stop4130"
         offset="1"
         style="stop-color:#000000;stop-opacity:0;" />
    </linearGradient>
    <radialGradient
       inkscape:collect="always"
       xlink:href="#linearGradient4215"
       id="radialGradient7243"
       gradientUnits="userSpaceOnUse"
       gradientTransform="matrix(-1.4320604,-0.44666345,0.29775312,-0.95464282,-61.784137,-44.466242)"
       cx="-27.421984"
       cy="-16.482727"
       fx="-27.421984"
       fy="-16.482727"
       r="9.7810764" />
    <linearGradient
       inkscape:collect="always"
       xlink:href="#linearGradient8277"
       id="linearGradient8283"
       x1="24.25"
       y1="35.9375"
       x2="24.25"
       y2="29.499697"
       gradientUnits="userSpaceOnUse" />
    <linearGradient
       inkscape:collect="always"
       xlink:href="#linearGradient8291"
       id="linearGradient8289"
       gradientUnits="userSpaceOnUse"
       x1="24.25"
       y1="35.9375"
       x2="24.25"
       y2="29.124411"
       gradientTransform="matrix(1,0,0,-1,0,47.257991)" />
    <radialGradient
       inkscape:collect="always"
       xlink:href="#linearGradient8325"
       id="radialGradient8331"
       cx="15.6875"
       cy="24.3848"
       fx="15.6875"
       fy="24.3848"
       r="5.927527"
       gradientTransform="matrix(1.7968418e-7,-0.66474335,1.1652107,1.3061349e-7,-12.725934,34.615658)"
       gradientUnits="userSpaceOnUse" />
  </defs>
  <sodipodi:namedview
     id="base"
     pagecolor="#ffffff"
     bordercolor="#666666"
     borderopacity="1.0"
     inkscape:pageopacity="0.0"
     inkscape:pageshadow="2"
     inkscape:zoom="8"
     inkscape:cx="19.092227"
     inkscape:cy="18.351168"
     inkscape:current-layer="layer2"
     showgrid="false"
     inkscape:grid-bbox="true"
     inkscape:document-units="px"
     inkscape:window-width="1280"
     inkscape:window-height="751"
     inkscape:window-x="0"
     inkscape:window-y="1"
     inkscape:showpageshadow="false"
     inkscape:object-nodes="false"
     inkscape:window-maximized="1"
     fit-margin-top="0"
     fit-margin-left="0"
     fit-margin-right="0"
     fit-margin-bottom="0">
    <inkscape:grid
       type="xygrid"
       id="grid4061"
       empspacing="5"
       visible="true"
       enabled="true"
       snapvisiblegridlinesonly="true"
       spacingx="1px"
       spacingy="1px"
       originx="-3.9999995"
       originy="-3.9999995" />
  </sodipodi:namedview>
  <metadata
     id="metadata1311">
    <rdf:RDF>
      <cc:Work
         rdf:about="">
        <dc:format>image/svg+xml</dc:format>
        <dc:type
           rdf:resource="http://purl.org/dc/dcmitype/StillImage" />
        <dc:title></dc:title>
        <dc:date>January 2006</dc:date>
        <dc:creator>
          <cc:Agent>
            <dc:title>Ryan Collier (pseudo)</dc:title>
          </cc:Agent>
        </dc:creator>
        <dc:publisher>
          <cc:Agent>
            <dc:title>http://www.tango-project.org</dc:title>
          </cc:Agent>
        </dc:publisher>
        <dc:source>http://www.pseudocode.org</dc:source>
        <dc:subject>
          <rdf:Bag>
            <rdf:li>weather</rdf:li>
            <rdf:li>applet</rdf:li>
            <rdf:li>notification</rdf:li>
          </rdf:Bag>
        </dc:subject>
        <cc:license
           rdf:resource="http://creativecommons.org/licenses/by-sa/2.0/" />
      </cc:Work>
      <cc:License
         rdf:about="http://creativecommons.org/licenses/by-sa/2.0/">
        <cc:permits
           rdf:resource="http://web.resource.org/cc/Reproduction" />
        <cc:permits
           rdf:resource="http://web.resource.org/cc/Distribution" />
        <cc:requires
           rdf:resource="http://web.resource.org/cc/Notice" />
        <cc:requires
           rdf:resource="http://web.resource.org/cc/Attribution" />
        <cc:permits
           rdf:resource="http://web.resource.org/cc/DerivativeWorks" />
        <cc:requires
           rdf:resource="http://web.resource.org/cc/ShareAlike" />
      </cc:License>
    </rdf:RDF>
  </metadata>
  <g
     inkscape:groupmode="layer"
     id="layer2"
     inkscape:label="Shadow"
     style="display:inline"
     transform="translate(-3.9999995,-3.9999996)" />
  <g
     id="layer1"
     inkscape:label="Layer 1"
     inkscape:groupmode="layer"
     style="display:inline"
     transform="translate(-3.9999995,-3.9999996)">
    <g
       style="display:inline;fill:#729fcf"
       id="g7223"
       transform="translate(-1.28817,1.2522391)">
      <circle
         transform="matrix(2,0,0,2,137.78817,22.247761)"
         id="path7661"
         style="fill:#729fcf;stroke:#204a87;stroke-width:0.50000048;stroke-miterlimit:4;stroke-dasharray:none;stroke-dashoffset:0;stroke-opacity:1"
         cx="-56.25"
         cy="0.24999997"
         r="9.75" />
    </g>
    <path
       style="fill:url(#linearGradient8283);fill-opacity:1;stroke:none"
       d="M 10,36 38,36 42.125,27.875 6.4375,29.25 Z"
       id="path8055"
       inkscape:connector-curvature="0"
       sodipodi:nodetypes="ccccc" />
    <path
       style="fill:url(#radialGradient8331);fill-opacity:1;stroke:none"
       d="m 15.65625,20.96875 c -0.582329,0.06454 -1.043984,0.537427 -1.64187,0.531796 -0.552166,-0.261571 -1.071896,0.26577 -1.630361,0.189113 -1.109997,0.19365 -2.237884,0.559088 -3.0867119,1.330269 -0.6105011,0.769447 -0.2109098,2.101663 0.7464559,2.367734 0.616287,0.412415 1.276003,0.865799 2.049856,0.851974 0.843572,0.138703 1.65795,0.415314 2.444634,0.744676 0.905201,0.09974 1.730113,-0.377389 2.596555,-0.544883 1.020566,-0.358391 2.052446,-0.714157 3.022752,-1.189305 0.731099,-0.555032 0.981108,-1.76364 0.322734,-2.467929 C 19.983534,22.44794 19.252008,22.577183 18.871382,22.049557 17.963745,21.290639 16.676715,21.468455 15.65625,20.96875 Z M 11.1875,26.125 c -0.131254,-0.08321 0.08321,0.131254 0,0 z"
       id="path8057"
       inkscape:connector-curvature="0" />
    <path
       style="fill:#eeeeec;fill-opacity:1;stroke:none"
       d="m 19.616894,25.276678 c -0.326175,0.154006 -0.752115,0.134436 -1.134031,0.17443 -0.330161,-0.117272 -0.757119,-0.156217 -1.102453,-0.04168 -0.400012,-0.07915 -0.917905,-0.05217 -1.180349,0.17865 -0.263301,0.132487 -0.703996,0.04621 -0.894099,0.24713 -0.132671,0.185047 -0.281365,0.485955 0.09323,0.600077 0.281323,0.137337 0.51091,0.339063 0.881314,0.386707 0.293756,0.102242 0.672573,0.180421 0.986134,0.06494 0.576013,-0.07193 1.12942,0.103931 1.700412,0.117968 C 19.30382,27.06055 19.682801,27.131072 20,27 c 0.344391,-0.09818 0.726174,-0.148603 1.102991,-0.116823 0.310362,-0.04196 0.523001,-0.288533 0.873893,-0.176735 0.385313,0.01669 0.538662,-0.212122 0.727198,-0.368121 0.185058,-0.152491 0.204244,-0.413748 -0.08556,-0.521252 -0.483353,-0.236028 -1.065924,-0.459955 -1.703506,-0.402649 -0.356925,0.01463 -0.743459,0.01914 -1.058716,-0.104245 -0.07624,-0.01894 -0.156867,-0.03324 -0.2394,-0.03345 z m 3.162598,1.088325 c -0.118019,-0.115429 -0.02024,0.121365 0,0 z m -4.960938,0.625786 c -0.152516,0.07924 0.114183,0.04693 0,0 z m -1.550293,-0.05442 c -0.250586,0.11729 0.189109,0.03981 0,0 z m 5.457032,-0.299289 c 0.19752,-0.06204 -0.01638,0.125579 0,0 z"
       id="path8059"
       inkscape:connector-curvature="0" />
    <path
       style="display:inline;fill:#eeeeec;fill-opacity:1;stroke:none"
       d="m 18.75,20.625 c -0.806615,0.115653 -1.66251,0.09816 -2.40625,0.46875 -0.09263,-0.132503 -0.26309,0.126532 -0.0625,0.09375 0.212239,-0.0599 0.100261,0.3099 0.3125,0.25 0.432287,0.344474 1.046683,0.282418 1.5625,0.40625 0.971067,-0.322956 2.024913,-0.332952 3.003533,-0.03471 0.904402,0.130992 1.786349,0.542525 2.709112,0.449534 0.17458,-0.0087 0.391513,-0.07062 0.381105,-0.289826 -0.254256,-0.1892 -0.636067,-0.068 -0.84375,-0.3125 -0.137761,0.04909 -0.336728,0.434615 -0.46875,0.15625 -0.985156,-0.181746 -1.813419,-0.772177 -2.6875,-1.21875 -0.489516,-0.133406 -1.008423,-0.0484 -1.5,0.03125 z m -1.21875,1.4375 c 0.07543,0.217228 0.07543,-0.217228 0,0 z"
       id="path8059-4"
       inkscape:connector-curvature="0" />
    <path
       style="fill:#eeeeec;fill-opacity:1;stroke:none"
       d="m 28.96875,23.375 c -0.87591,0.008 -1.770732,0.137872 -2.5625,0.53125 -0.148235,0.105023 -0.436607,0.126857 -0.34375,0.375 0.131314,0.182498 0.327667,-0.12869 0.478163,-0.142088 0.825293,-0.424329 1.790281,-0.41139 2.694882,-0.368864 1.065415,0.02632 2.133622,0.136175 3.170705,0.385952 0.1875,0.0625 0.375,0.125 0.5625,0.1875 -0.406513,-0.675531 -1.313161,-0.426289 -1.875,-0.84375 -0.705871,-0.07681 -1.413304,-0.206704 -2.125,-0.125 z"
       id="path8251"
       inkscape:connector-curvature="0" />
    <path
       style="fill:#0e203b;fill-opacity:1;stroke:none"
       d="M 34.03125,32.1875 C 33.023612,32.295287 32.010766,32.338889 31,32.40625 c -0.143278,0.199614 -0.398678,0.297658 -0.505593,0.526669 0.06448,0.239052 0.403268,0.245307 0.460642,0.488865 0.133728,0.248863 0.425886,0.07201 0.579643,-0.04768 0.183544,-0.01969 0.364696,0.04553 0.547011,0.0617 0.314884,0.05754 0.632507,0.124943 0.954814,0.09829 0.255475,-0.01108 0.50553,-0.07193 0.748846,-0.145377 0.304114,-0.0377 0.624658,0.167527 0.912821,-0.0016 0.195024,-0.105456 0.427451,-0.128526 0.643298,-0.08628 0.213584,-0.140277 0.151479,-0.492424 -0.06822,-0.593951 -0.350233,-0.223102 -0.741226,-0.381777 -1.065461,-0.645161 -0.08486,-0.02072 -0.138597,0.06509 -0.176551,0.125796 z"
       id="path8254"
       inkscape:connector-curvature="0" />
    <path
       sodipodi:nodetypes="ccccc"
       inkscape:connector-curvature="0"
       id="path8287"
       d="m 10,11.257991 28,0 4.125,8.125 -35.6875,-1.375 z"
       style="fill:url(#linearGradient8289);fill-opacity:1;stroke:none" />
    <path
       style="display:inline;opacity:0.5;fill:#eeeeec;fill-opacity:1;stroke:none"
       d="m 14.928371,16.101087 c -0.326175,0.154006 -0.752115,0.134436 -1.134031,0.17443 -0.330161,-0.117272 -0.757119,-0.156217 -1.102453,-0.04168 -0.400012,-0.07915 -0.917905,-0.05217 -1.180349,0.17865 -0.263301,0.132487 -0.703996,0.04621 -0.894099,0.24713 -0.132671,0.185047 -0.281365,0.485955 0.09323,0.600077 0.281323,0.137337 0.51091,0.339063 0.881314,0.386707 0.293756,0.102242 0.672573,0.180421 0.986134,0.06494 0.576013,-0.07193 1.12942,0.103931 1.700412,0.117968 0.336768,0.05565 0.715749,0.126172 1.032948,-0.0049 0.344391,-0.09818 0.726174,-0.148603 1.102991,-0.116823 0.310362,-0.04196 0.523001,-0.288533 0.873893,-0.176735 0.385313,0.01669 0.538662,-0.212122 0.727198,-0.368121 0.185058,-0.152491 0.204244,-0.413748 -0.08556,-0.521252 -0.483353,-0.236028 -1.065924,-0.459955 -1.703506,-0.402649 -0.356925,0.01463 -0.743459,0.01914 -1.058716,-0.104245 -0.07624,-0.01894 -0.156867,-0.03324 -0.2394,-0.03345 z m 3.162598,1.088325 c -0.118019,-0.115429 -0.02024,0.121365 0,0 z m -4.960938,0.625786 c -0.152516,0.07924 0.114183,0.04693 0,0 z m -1.550293,-0.05442 c -0.250586,0.11729 0.189109,0.03981 0,0 z m 5.457032,-0.299289 c 0.19752,-0.06204 -0.01638,0.125579 0,0 z"
       id="path8059-3"
       inkscape:connector-curvature="0" />
  </g>
  <g
     inkscape:groupmode="layer"
     id="layer3"
     inkscape:label="Shade"
     style="display:inline"
     sodipodi:insensitive="true"
     transform="translate(-3.9999995,-3.9999996)">
    <circle
       transform="matrix(-1.215784,-1.5210511,1.5210543,-1.2157848,11.713362,-45.949871)"
       id="path7663"
       style="display:inline;fill:url(#radialGradient7243);fill-opacity:1;stroke:#a0bedf;stroke-width:0.51354861;stroke-linecap:square;stroke-linejoin:miter;stroke-miterlimit:4;stroke-dasharray:none;stroke-opacity:1"
       cx="-32"
       cy="-17.5"
       r="9.5" />
  </g>
</svg>
